<svg width="313" height="102" viewBox="0 0 313 102" fill="none" xmlns="http://www.w3.org/2000/svg">
<path d="M301 24.5L305.5 20V26.5L301 31V24.5Z" fill="#D0DBA1"/>
<path d="M266.161 7.24636L267.117 -5.41346e-05L271.683 4.74485L270.726 11.9913L266.161 7.24636Z" fill="#D0DBA1"/>
<path d="M5.71457 97.0006L7.32677 101.383L2.99728 99.3823L1.38508 94.9998L5.71457 97.0006Z" fill="#D0DBA1"/>
<path d="M287.715 53.0006L289.327 57.3831L284.997 55.3823L283.385 50.9998L287.715 53.0006Z" fill="#D0DBA1"/>
<path d="M310.477 82.7668L306 84.0943L308.275 79.9022L312.752 78.5747L310.477 82.7668Z" fill="#D0DBA1"/>
<path d="M9.71457 19.0006L11.3268 23.3831L6.99728 21.3823L5.38508 16.9998L9.71457 19.0006Z" fill="#D0DBA1"/>
<path d="M36.8751 70.0289L33.6949 73.4481L33.5222 68.6818L36.7025 65.2625L36.8751 70.0289Z" fill="#D0DBA1"/>
<path d="M21.4723 49.7663L18.292 53.1856L18.1194 48.4192L21.2997 45L21.4723 49.7663Z" fill="#D0DBA1"/>
<path d="M59.867 13.9394L54.0829 19.938L53.4429 11.9984L59.2271 5.99988L59.867 13.9394Z" fill="#C8D28B"/>
</svg>
