<svg width="216" height="57" viewBox="0 0 216 57" fill="none" xmlns="http://www.w3.org/2000/svg">
<path d="M107.958 13.3268L84.6068 1.91088C80.6285 0.00820651 71.634 0.354117 71.634 10.2133C71.634 16.4403 77.342 19.035 84.0879 17.9971L107.958 13.3268ZM107.958 13.3268C105.709 14.7105 98.0985 19.3462 85.6446 26.8185C70.0772 36.1589 58.6612 34.6022 35.3102 34.0833C16.6294 33.6681 4.69439 48.4398 1.06201 55.8776" stroke="#9FB180" stroke-opacity="0.3" stroke-width="2" stroke-linecap="round" stroke-linejoin="round"/>
<path d="M107.958 13.3268L131.309 1.91088C135.287 0.00820651 144.282 0.354117 144.282 10.2133C144.282 16.4403 138.574 19.035 131.828 17.9971L107.958 13.3268ZM107.958 13.3268C110.206 14.7105 117.817 19.3462 130.271 26.8185C145.838 36.1589 157.254 34.6022 180.605 34.0833C199.286 33.6681 211.221 48.4398 214.854 55.8776" stroke="#9FB180" stroke-opacity="0.3" stroke-width="2" stroke-linecap="round" stroke-linejoin="round"/>
</svg>
