<svg id="logo-github" xmlns="http://www.w3.org/2000/svg" viewBox="0 0 24 24">
  <defs>
    <style>
      .cls-1 {
        fill: none;
      }

      .cls-2 {
        fill: #6a6a6a;
        fill-rule: evenodd;
      }
    </style>
  </defs>
  <rect id="사각형_10" data-name="사각형 10" class="cls-1" width="24" height="24"/>
  <g id="그룹_20" data-name="그룹 20">
    <path id="패스_4" data-name="패스 4" class="cls-2" d="M12,.3A12.01,12.01,0,0,0,8.2,23.7a.609.609,0,0,0,.8-.6v-2c-3.3.7-4-1.6-4-1.6a3.167,3.167,0,0,0-1.3-1.8c-1.2-.7,0-.7,0-.7a2.462,2.462,0,0,1,1.8,1.2,2.606,2.606,0,0,0,3.5,1,2.226,2.226,0,0,1,.8-1.6c-2.7-.3-5.5-1.3-5.5-5.9A4.831,4.831,0,0,1,5.5,8.5a5.168,5.168,0,0,1,.2-3.2S6.7,5,9,6.5a10.323,10.323,0,0,1,3-.4,10.323,10.323,0,0,1,3,.4c2.3-1.6,3.3-1.2,3.3-1.2a4.193,4.193,0,0,1,.1,3.2,4.378,4.378,0,0,1,1.2,3.2c0,4.6-2.8,5.6-5.5,5.9a3.008,3.008,0,0,1,.8,2.2v3.3a.609.609,0,0,0,.8.6,11.987,11.987,0,0,0,8.2-11.4A11.886,11.886,0,0,0,12,.3Z"/>
  </g>
</svg>
